<svg id="Capa_1" enable-background="new 0 0 512 512" height="512" viewBox="0 0 512 512" width="512" xmlns="http://www.w3.org/2000/svg"><g><path d="m0 30v107c0 8.28 6.72 15 15 15h128c8.28 0 15-6.72 15-15v-107c0-16.54-13.46-30-30-30h-98c-16.54 0-30 13.46-30 30z" fill="#ff8e00"/><path d="m78.02 0h49.98c16.54 0 30 13.46 30 30v107c0 8.28-6.72 15-15 15h-64.98z" fill="#ff6326"/><path d="m0 257c0 8.28 6.72 15 15 15h128c8.28 0 15-6.72 15-15v-135h-158z" fill="#ffd321"/><path d="m78.02 122h79.98v135c0 8.28-6.72 15-15 15h-64.98z" fill="#ff8e00"/><path d="m0 242v112s29.95-.22 29.95 29.95v.05h113.05c8.28 0 15-6.72 15-15v-127z" fill="#fff16b"/><path d="m78.02 384v-142h79.98v127c0 8.28-6.72 15-15 15z" fill="#ffd321"/><path d="m211.315 44.858-53.5 92.665c-4.14 7.171-1.68 16.35 5.49 20.49l110.851 64c7.171 4.14 16.35 1.68 20.49-5.49l53.5-92.665c8.27-14.324 3.343-32.711-10.981-40.981l-84.87-49c-14.324-8.27-32.71-3.343-40.98 10.981z" fill="#bd2e4a"/><path d="m293.882 57.887 43.284 24.99c14.324 8.27 19.251 26.657 10.981 40.981l-53.5 92.665c-4.14 7.171-13.32 9.63-20.49 5.49l-56.274-32.49z" fill="#a3264a"/><path d="m97.815 241.446c-4.14 7.171-1.68 16.35 5.49 20.49l110.851 64c7.171 4.14 16.35 1.68 20.49-5.49l67.5-116.913-136.832-79z" fill="#dc455b"/><path d="m232.882 163.542 69.265 39.99-67.5 116.913c-4.14 7.171-13.32 9.63-20.49 5.49l-56.274-32.49z" fill="#bd2e4a"/><path d="m41.815 338.44c-4.14 7.171-1.68 16.35 5.49 20.49l110.851 64c7.171 4.14 16.35 1.68 20.49-5.49l63.5-109.985-136.832-79z" fill="#e27a4e"/><path d="m101.882 390.441 71-122.976 69.265 39.99-63.5 109.985c-4.14 7.171-13.32 9.63-20.49 5.49z" fill="#dc455b"/><path d="m158 388.21-2.14-1.24-20.9-12.07-18.08-10.44-18.12-10.46-20.9-12.07-28.55-16.48-16.48 28.55-12.07 20.9-20.76 35.95v68.58l19.29 11.13 18.59 10.73 18.55 10.71h67.62l12.38-21.44 19.43-33.66 2.14-3.71 11.08-19.19 17.06-29.55z" fill="#bebcdd"/><path d="m387.007 163.45-92.665 53.5c-7.171 4.14-9.63 13.32-5.49 20.49l64 110.851c4.14 7.171 13.32 9.63 20.49 5.49l92.665-53.5c14.324-8.27 19.251-26.657 10.981-40.981l-49-84.87c-8.271-14.323-26.657-19.25-40.981-10.98z" fill="#4793ff"/><path d="m451.997 216.017 24.99 43.284c8.27 14.324 3.343 32.711-10.981 40.981l-92.665 53.5c-7.171 4.14-16.35 1.68-20.49-5.49l-32.49-56.274z" fill="#005edf"/><path d="m190.419 276.95c-7.171 4.14-9.63 13.32-5.49 20.49l64 110.851c4.14 7.171 13.32 9.63 20.49 5.49l116.913-67.5-79-136.832z" fill="#8bb9ff"/><path d="m346.342 277.017 39.99 69.265-116.913 67.5c-7.171 4.14-16.35 1.68-20.49-5.49l-32.49-56.274z" fill="#4793ff"/><path d="m93.424 332.95c-7.171 4.14-9.63 13.32-5.49 20.49l64 110.851c4.14 7.171 13.32 9.63 20.49 5.49l109.985-63.5-79-136.832z" fill="#b1d5f1"/><path d="m119.444 408.017 122.976-71 39.99 69.265-109.985 63.5c-7.171 4.14-16.35 1.68-20.49-5.49z" fill="#8bb9ff"/><path d="m169.08 434-11.08-19.19-2.14-3.71-10.44-18.08-10.46-18.12-12.07-20.9-16.48-28.55-28.55 16.48-20.9 12.07-36.2 20.9-20.76 11.98v70.26l8.59 14.88 10.7 18.54 12.38 21.44h67.62l37.14-21.44 19.43-11.22 2.14-1.24 27.41-15.82z" fill="#e2dff4"/><path d="m482 354h-107c-8.28 0-15 6.72-15 15v128c0 8.28 6.72 15 15 15h107c16.54 0 30-13.46 30-30v-98c0-16.54-13.46-30-30-30z" fill="#5e54ac"/><path d="m512 432.02v49.98c0 16.54-13.46 30-30 30h-107c-8.28 0-15-6.72-15-15v-64.98z" fill="#38336b"/><path d="m255 354c-8.28 0-15 6.72-15 15v128c0 8.28 6.72 15 15 15h135v-158z" fill="#7873d5"/><path d="m390 432.02v79.98h-135c-8.28 0-15-6.72-15-15v-64.98z" fill="#5e54ac"/><path d="m143 354c-8.28 0-15 6.72-15 15v128c0 8.28 6.72 15 15 15h127v-158z" fill="#b7b4e7"/><path d="m128 432.02h142v79.98h-127c-8.28 0-15-6.72-15-15z" fill="#7873d5"/><path d="m158 354h-158v143c0 8.284 6.716 15 15 15h143z" fill="#f4f4f6"/><path d="m0 432.02h158v79.98h-143c-8.28 0-15-6.72-15-15z" fill="#e2dff4"/><path d="m94.01 432.02c0 .48-.03.97-.08 1.46-.81 7.81-7.34 13.52-14.93 13.52-8.19 0-14.99-6.68-15-14.98 0-.01 0-.01 0-.02 0-8.85 7.72-15.82 16.48-14.92 7.48.61 13.56 7.2 13.53 14.94z" fill="#0a617d"/><path d="m94.01 432.02c0 .48-.03.97-.08 1.46-.81 7.81-7.34 13.52-14.93 13.52-8.19 0-14.99-6.68-15-14.98z" fill="#05303d"/></g></svg>